<svg xmlns="http://www.w3.org/2000/svg" fill="none" viewBox="0 0 200 48" height="48" width="200">
<path fill="#4285F4" d="M18.2537 40.8019H25.3791V23.4971L15.1998 15.8625V37.7482C15.1998 39.4354 16.5663 40.8022 18.2537 40.8022V40.8019Z"></path>
<path fill="#34A853" d="M49.8099 40.8019H56.9355C58.6227 40.8019 59.9892 39.4354 59.9892 37.7482V15.8625L49.8099 23.4971V40.8019Z"></path>
<path fill="#FBBC04" d="M49.8099 10.2619V23.4951L59.9892 15.8606V11.7889C59.9892 8.0149 55.6809 5.8594 52.6601 8.12434L49.8099 10.2619Z"></path>
<path fill="#EA4335" d="M25.3787 23.4925V10.2593L37.5939 19.4208L49.8091 10.2593V23.4925L37.5939 32.6539L25.3787 23.4925Z" clip-rule="evenodd" fill-rule="evenodd"></path>
<path fill="#C5221F" d="M15.1998 11.7889V15.8606L25.3791 23.4951V10.2619L22.5289 8.12434C19.5081 5.8594 15.1998 8.0149 15.1998 11.7887V11.7889Z"></path>
<path fill="#4285F4" d="M98.7669 15.7375V12.8156H108.468C108.58 13.4112 108.633 14.016 108.628 14.6218C108.628 16.7468 108.042 19.4562 106.123 21.3156C104.257 23.2812 101.912 24.2906 98.7133 24.2906C92.9037 24.2906 87.9997 19.5624 87.9997 13.7718C87.9997 7.9812 92.9037 3.19995 98.7133 3.19995C101.965 3.19995 104.257 4.47495 106.016 6.12182L103.937 8.14059C102.855 7.11061 101.489 6.42375 100.015 6.16684C98.5405 5.90993 97.0229 6.0945 95.6533 6.69722C94.2845 7.29994 93.1253 8.29379 92.3229 9.55299C91.5197 10.8123 91.1101 12.2804 91.1445 13.7718C91.1445 18.0218 94.5029 21.4218 98.7133 21.4218C101.485 21.4218 103.084 20.3062 104.097 19.2968C104.897 18.5 105.43 17.3312 105.643 15.7375H98.7669Z"></path>
<path fill="#EA4335" d="M123.393 17.4907C123.393 21.4219 120.301 24.2907 116.517 24.2907C112.732 24.2907 109.694 21.4219 109.694 17.4907C109.694 13.5594 112.786 10.6907 116.517 10.6907C120.248 10.6907 123.393 13.5594 123.393 17.4907ZM120.355 17.4907C120.355 15.0469 118.596 13.4 116.517 13.4C114.438 13.4 112.679 15.0469 112.679 17.4907C112.679 19.9344 114.492 21.6344 116.517 21.6344C118.543 21.6344 120.355 19.9344 120.355 17.4907Z"></path>
<path fill="#FBBC04" d="M138.318 17.4907C138.318 21.4219 135.227 24.2907 131.442 24.2907C127.657 24.2907 124.619 21.4219 124.619 17.4907C124.619 13.5594 127.711 10.6907 131.442 10.6907C135.173 10.6907 138.318 13.5594 138.318 17.4907ZM135.28 17.4907C135.28 15.0469 133.521 13.4 131.442 13.4C129.363 13.4 127.604 15.0469 127.604 17.4907C127.604 19.9344 129.416 21.6344 131.442 21.6344C133.468 21.6344 135.28 19.9344 135.28 17.4907Z"></path>
<path fill="#4285F4" d="M152.604 11.1156V23.3344C152.604 28.3282 149.619 30.4 146.1 30.4C142.796 30.4 140.824 28.1687 140.077 26.3625L142.689 25.3C143.168 26.4156 144.288 27.7438 146.1 27.7438C148.392 27.7438 149.778 26.3094 149.778 23.7594V22.75H149.672C149.218 23.2563 148.658 23.6568 148.032 23.9232C147.405 24.1894 146.728 24.3149 146.047 24.2907C142.689 24.2907 139.544 21.3156 139.544 17.5438C139.544 13.7188 142.689 10.6907 146.047 10.6907C147.7 10.6907 148.979 11.4344 149.672 12.2313H149.778V11.1156H152.604ZM149.992 17.5438C149.992 15.1532 148.392 13.4 146.314 13.4C144.288 13.4 142.529 15.1532 142.529 17.5438C142.529 19.8813 144.288 21.6344 146.314 21.6344C148.392 21.6344 149.992 19.8813 149.992 17.5438Z"></path>
<path fill="#34A853" d="M154.683 3.99683H157.668V23.9187H154.683V3.99683Z"></path>
<path fill="#EA4335" d="M169.234 19.7219L171.58 21.3156C170.833 22.3782 169.021 24.2907 165.876 24.2907C161.985 24.2907 159.107 21.3156 159.107 17.4907C159.107 13.4532 162.038 10.6907 165.556 10.6907C169.074 10.6907 170.833 13.5063 171.367 15.0469L171.686 15.7907L162.572 19.5625C163.264 20.9438 164.33 21.6344 165.876 21.6344C167.422 21.6344 168.435 20.8907 169.234 19.7219ZM162.092 17.2782L168.168 14.7813C167.848 13.9313 166.836 13.3469 165.663 13.3469C164.117 13.3469 161.985 14.6751 162.092 17.2782Z"></path>
<path fill="white" d="M110.381 38.8666C110.381 37.6444 110.77 36.6333 111.548 35.8333C112.328 35.0333 113.317 34.6333 114.519 34.6333C115.72 34.6333 116.699 35.0333 117.455 35.8333C118.233 36.6333 118.623 37.6444 118.623 38.8666C118.623 40.1111 118.233 41.1333 117.455 41.9333C116.676 42.7333 115.697 43.1333 114.519 43.1333C113.34 43.1333 112.349 42.7333 111.548 41.9333C110.77 41.1333 110.381 40.1111 110.381 38.8666ZM111.883 38.8666C111.883 39.7333 112.138 40.4333 112.65 40.9666C113.161 41.5 113.784 41.7666 114.519 41.7666C115.252 41.7666 115.876 41.5 116.387 40.9666C116.899 40.4333 117.144 39.7333 117.121 38.8666C117.121 38.0222 116.876 37.3333 116.387 36.8C115.876 36.2666 115.252 36 114.519 36C113.784 36 113.161 36.2666 112.65 36.8C112.138 37.3333 111.883 38.0222 111.883 38.8666ZM121.192 42.8666H119.691V34.8666H121.125V36.2H121.192C121.348 35.7555 121.67 35.3888 122.16 35.1C122.649 34.8111 123.116 34.6555 123.561 34.6333C123.984 34.6333 124.351 34.7 124.662 34.8333L124.195 36.3C124.017 36.2333 123.728 36.2 123.328 36.2C122.749 36.2 122.248 36.4222 121.826 36.8666C121.404 37.3111 121.192 37.8444 121.192 38.4666V42.8666ZM132.404 42.8666H130.568L128.099 39.1L126.864 40.3333V42.8666H125.363V31.2H126.864V38.4L130.335 34.8666H132.236V34.9333L129.133 38.0333L132.404 42.8V42.8666Z"></path>
<path fill="white" d="M138.91 40.6667C138.91 41.3556 138.61 41.9446 138.009 42.4335C137.409 42.9223 136.63 43.1556 135.673 43.1335C134.873 43.1335 134.172 42.9223 133.572 42.5001C132.98 42.1022 132.525 41.5319 132.27 40.8667L133.605 40.3001C133.805 40.7667 134.083 41.1335 134.439 41.4001C134.797 41.6623 135.229 41.8025 135.673 41.8001C136.163 41.8001 136.564 41.7001 136.875 41.5001C137.186 41.3001 137.353 41.0556 137.375 40.7667C137.375 40.2556 136.986 39.8779 136.208 39.6335L134.806 39.3001C133.249 38.9001 132.47 38.1446 132.47 37.0335C132.47 36.3001 132.771 35.7112 133.371 35.2667C133.972 34.8223 134.729 34.6001 135.641 34.6001C136.352 34.6001 136.997 34.7779 137.576 35.1335C138.154 35.489 138.554 35.9335 138.777 36.4667L137.442 37.0335C137.292 36.6938 137.033 36.4128 136.708 36.2335C136.349 36.0447 135.946 35.9527 135.54 35.9667C135.166 35.9506 134.795 36.0432 134.473 36.2335C134.161 36.4335 134.005 36.6779 134.005 36.9667C134.005 37.4335 134.439 37.7556 135.306 37.9335L136.508 38.2667C138.109 38.6446 138.91 39.4446 138.91 40.6667ZM144.116 43.1335C143.537 43.1335 143.004 43.0112 142.514 42.7667C142.025 42.5223 141.657 42.189 141.413 41.7667H141.346L141.413 42.8667V46.4001H139.911V34.8667H141.346V36.0001H141.413C141.657 35.5779 142.025 35.2446 142.514 35.0001C143.004 34.7556 143.549 34.6335 144.149 34.6335C145.194 34.6335 146.085 35.0446 146.818 35.8667C147.575 36.689 147.953 37.689 147.953 38.8667C147.953 40.0667 147.575 41.0779 146.818 41.9001C146.085 42.7223 145.194 43.1335 144.149 43.1335H144.116ZM143.882 41.7667C144.617 41.7667 145.228 41.5001 145.717 40.9667C146.207 40.4335 146.452 39.7335 146.452 38.8667C146.452 38.0446 146.207 37.3556 145.717 36.8001C145.228 36.2446 144.617 35.9779 143.882 36.0001C143.148 36.0001 142.537 36.2667 142.047 36.8001C141.58 37.3556 141.346 38.0446 141.346 38.8667C141.346 39.7335 141.58 40.4335 142.047 40.9667C142.537 41.5001 143.148 41.7667 143.882 41.7667ZM152.057 34.6335C153.169 34.6335 154.048 34.9223 154.693 35.5001C155.338 36.0779 155.661 36.889 155.661 37.9335V42.8667H154.226V41.7667H154.16C153.537 42.6779 152.702 43.1335 151.657 43.1335C150.789 43.1335 150.055 42.8779 149.454 42.3667C148.854 41.8556 148.553 41.2001 148.553 40.4001C148.553 39.5779 148.865 38.9223 149.488 38.4335C150.111 37.9446 150.956 37.7001 152.024 37.7001C152.913 37.7001 153.648 37.8556 154.226 38.1667V37.8335C154.226 37.3001 154.015 36.8556 153.592 36.5001C153.197 36.1513 152.685 35.9613 152.157 35.9667C151.312 35.9667 150.645 36.3223 150.155 37.0335L148.821 36.2001C149.555 35.1556 150.633 34.6335 152.057 34.6335ZM150.122 40.4335C150.122 40.8335 150.289 41.1556 150.622 41.4001C150.956 41.6446 151.345 41.7779 151.79 41.8001C152.413 41.8001 152.969 41.5667 153.459 41.1001C153.948 40.6335 154.204 40.089 154.226 39.4667C153.759 39.089 153.103 38.9001 152.257 38.9001C151.657 38.9001 151.145 39.0446 150.722 39.3335C150.3 39.6223 150.1 39.989 150.122 40.4335ZM160.766 43.1335C159.565 43.1335 158.575 42.7335 157.797 41.9335C157.018 41.1112 156.629 40.089 156.629 38.8667C156.629 37.6446 157.018 36.6335 157.797 35.8335C158.575 35.0335 159.565 34.6335 160.766 34.6335C161.589 34.6335 162.301 34.8335 162.901 35.2335C163.502 35.6335 163.958 36.2001 164.27 36.9335L162.901 37.5001C162.479 36.5001 161.734 36.0001 160.666 36.0001C159.977 36.0001 159.376 36.2779 158.865 36.8335C158.375 37.389 158.13 38.0667 158.13 38.8667C158.13 39.6667 158.375 40.3556 158.865 40.9335C159.376 41.489 159.977 41.7667 160.666 41.7667C161.756 41.7667 162.524 41.2667 162.969 40.2667L164.337 40.8335C164.025 41.5667 163.558 42.1335 162.935 42.5335C162.313 42.9335 161.589 43.1335 160.766 43.1335ZM168.841 43.1335C167.662 43.1335 166.694 42.7335 165.938 41.9335C165.182 41.1335 164.804 40.1112 164.804 38.8667C164.804 37.6667 165.171 36.6556 165.905 35.8335C166.639 35.0112 167.585 34.6112 168.741 34.6335C169.942 34.6335 170.888 35.0112 171.577 35.7667C172.267 36.5223 172.623 37.6001 172.645 39.0001V39.1667H166.339C166.361 39.9446 166.617 40.5779 167.106 41.0667C167.596 41.5556 168.196 41.789 168.908 41.7667C169.865 41.7667 170.621 41.289 171.177 40.3335L172.512 41.0001C172.165 41.6505 171.645 42.1927 171.01 42.5667C170.387 42.9446 169.665 43.1335 168.841 43.1335ZM166.439 37.9001H171.044C170.999 37.3446 170.777 36.889 170.376 36.5335C169.976 36.1779 169.42 36.0001 168.708 36.0001C168.152 36.0001 167.673 36.1667 167.273 36.5001C166.873 36.8335 166.594 37.3001 166.439 37.9001Z"></path>
<path fill="white" d="M108.848 31.2H110.4L107.295 43.2H105.776L103.299 35.28H103.233L100.723 43.2H99.2038L95.9998 31.2H97.5518L99.9958 40.6285H100.062L102.573 32.8114H103.96L106.469 40.6285H106.536L108.848 31.2Z"></path>
</svg>
